# xmcd CD database file
#
# Track frame offsets:
#	150
#	19432
#	42362
#
# Disc length: 818 seconds
#
# Revision: 13
# Processed by: cddbd v1.5.2PL0 Copyright (c) Steve Scherf et al.
# Submitted via: CDex 1.70beta2
#
DISCID=21033003
DTITLE=カントリー娘。に石川梨華（モーニング娘。） - 恋人は心の応援団
DYEAR=2001
DGENRE=JPop
TTITLE0=恋人は心の応援団
TTITLE1=恋人は心の応援団 (Hyper Dance Version)
TTITLE2=恋人は心の応援団 (Instrumental)
EXTD=YEAR: 2001
EXTT0=
EXTT1=
EXTT2=
PLAYORDER=
